<mxfile host="app.diagrams.net" modified="2023-12-29T06:03:56.739Z" agent="Mozilla/5.0 (Macintosh; Intel Mac OS X 10_15_7) AppleWebKit/537.36 (KHTML, like Gecko) Chrome/120.0.0.0 Safari/537.36" etag="4KuSLw_5CH2Vu5qYgK-o" version="21.8.2" type="github">
  <diagram name="Page-1" id="74e2e168-ea6b-b213-b513-2b3c1d86103e">
    <mxGraphModel dx="1096" dy="1026" grid="1" gridSize="10" guides="1" tooltips="1" connect="1" arrows="1" fold="1" page="1" pageScale="1" pageWidth="1100" pageHeight="850" background="none" math="0" shadow="0">
      <root>
        <mxCell id="0" />
        <mxCell id="1" parent="0" />
        <mxCell id="bCRU6YlXV68KjKm_1EpI-22" value="" style="rounded=1;whiteSpace=wrap;html=1;" vertex="1" parent="1">
          <mxGeometry x="80" y="41" width="79" height="40" as="geometry" />
        </mxCell>
        <mxCell id="bCRU6YlXV68KjKm_1EpI-23" value="&lt;b&gt;&lt;font style=&quot;font-size: 15px;&quot;&gt;Switch&lt;/font&gt;&lt;/b&gt;" style="text;strokeColor=none;align=center;fillColor=none;html=1;verticalAlign=middle;whiteSpace=wrap;rounded=0;" vertex="1" parent="1">
          <mxGeometry x="90" y="46" width="60" height="30" as="geometry" />
        </mxCell>
        <mxCell id="bCRU6YlXV68KjKm_1EpI-24" value="" style="rounded=1;whiteSpace=wrap;html=1;" vertex="1" parent="1">
          <mxGeometry x="240" y="41" width="79" height="40" as="geometry" />
        </mxCell>
        <mxCell id="bCRU6YlXV68KjKm_1EpI-25" value="&lt;b&gt;&lt;font style=&quot;font-size: 15px;&quot;&gt;vEOS&lt;/font&gt;&lt;/b&gt;" style="text;strokeColor=none;align=center;fillColor=none;html=1;verticalAlign=middle;whiteSpace=wrap;rounded=0;" vertex="1" parent="1">
          <mxGeometry x="250" y="46" width="60" height="30" as="geometry" />
        </mxCell>
        <mxCell id="bCRU6YlXV68KjKm_1EpI-26" value="" style="rounded=1;whiteSpace=wrap;html=1;" vertex="1" parent="1">
          <mxGeometry x="600" y="41" width="79" height="40" as="geometry" />
        </mxCell>
        <mxCell id="bCRU6YlXV68KjKm_1EpI-27" value="&lt;b&gt;&lt;font style=&quot;font-size: 15px;&quot;&gt;DHCP server&lt;/font&gt;&lt;/b&gt;" style="text;strokeColor=none;align=center;fillColor=none;html=1;verticalAlign=middle;whiteSpace=wrap;rounded=0;" vertex="1" parent="1">
          <mxGeometry x="610" y="46" width="60" height="30" as="geometry" />
        </mxCell>
        <mxCell id="bCRU6YlXV68KjKm_1EpI-28" value="" style="rounded=1;whiteSpace=wrap;html=1;" vertex="1" parent="1">
          <mxGeometry x="840" y="41" width="79" height="40" as="geometry" />
        </mxCell>
        <mxCell id="bCRU6YlXV68KjKm_1EpI-29" value="&lt;b&gt;&lt;font style=&quot;font-size: 15px;&quot;&gt;File server&lt;/font&gt;&lt;/b&gt;" style="text;strokeColor=none;align=center;fillColor=none;html=1;verticalAlign=middle;whiteSpace=wrap;rounded=0;" vertex="1" parent="1">
          <mxGeometry x="850" y="46" width="60" height="30" as="geometry" />
        </mxCell>
        <mxCell id="bCRU6YlXV68KjKm_1EpI-30" value="" style="rounded=0;whiteSpace=wrap;html=1;fillColor=#dae8fc;strokeColor=#6c8ebf;" vertex="1" parent="1">
          <mxGeometry x="115" y="120" width="10" height="720" as="geometry" />
        </mxCell>
        <mxCell id="bCRU6YlXV68KjKm_1EpI-31" value="" style="endArrow=classic;html=1;rounded=0;" edge="1" parent="1">
          <mxGeometry width="50" height="50" relative="1" as="geometry">
            <mxPoint x="10" y="121" as="sourcePoint" />
            <mxPoint x="115" y="121" as="targetPoint" />
          </mxGeometry>
        </mxCell>
        <mxCell id="bCRU6YlXV68KjKm_1EpI-32" value="Power up" style="text;strokeColor=none;align=center;fillColor=none;html=1;verticalAlign=middle;whiteSpace=wrap;rounded=0;" vertex="1" parent="1">
          <mxGeometry x="20" y="91" width="60" height="30" as="geometry" />
        </mxCell>
        <mxCell id="bCRU6YlXV68KjKm_1EpI-34" value="" style="endArrow=none;dashed=1;html=1;rounded=0;entryX=0.5;entryY=1;entryDx=0;entryDy=0;exitX=0.5;exitY=0;exitDx=0;exitDy=0;" edge="1" parent="1" source="bCRU6YlXV68KjKm_1EpI-30" target="bCRU6YlXV68KjKm_1EpI-22">
          <mxGeometry width="50" height="50" relative="1" as="geometry">
            <mxPoint x="510" y="550" as="sourcePoint" />
            <mxPoint x="560" y="500" as="targetPoint" />
          </mxGeometry>
        </mxCell>
        <mxCell id="bCRU6YlXV68KjKm_1EpI-35" value="" style="endArrow=none;dashed=1;html=1;rounded=0;entryX=0.5;entryY=1;entryDx=0;entryDy=0;" edge="1" parent="1" target="bCRU6YlXV68KjKm_1EpI-24">
          <mxGeometry width="50" height="50" relative="1" as="geometry">
            <mxPoint x="280" y="840" as="sourcePoint" />
            <mxPoint x="560" y="550" as="targetPoint" />
          </mxGeometry>
        </mxCell>
        <mxCell id="bCRU6YlXV68KjKm_1EpI-36" value="" style="rounded=0;whiteSpace=wrap;html=1;fillColor=#dae8fc;strokeColor=#6c8ebf;" vertex="1" parent="1">
          <mxGeometry x="274.5" y="200" width="10" height="619" as="geometry" />
        </mxCell>
        <mxCell id="bCRU6YlXV68KjKm_1EpI-37" value="" style="endArrow=classic;html=1;rounded=0;" edge="1" parent="1">
          <mxGeometry width="50" height="50" relative="1" as="geometry">
            <mxPoint x="140" y="202" as="sourcePoint" />
            <mxPoint x="274.5" y="202" as="targetPoint" />
          </mxGeometry>
        </mxCell>
        <mxCell id="bCRU6YlXV68KjKm_1EpI-39" value="&lt;b&gt;NO&lt;/b&gt; startup-config file" style="text;strokeColor=none;align=center;fillColor=none;html=1;verticalAlign=middle;whiteSpace=wrap;rounded=0;" vertex="1" parent="1">
          <mxGeometry x="140" y="172" width="120" height="30" as="geometry" />
        </mxCell>
        <mxCell id="bCRU6YlXV68KjKm_1EpI-40" value="" style="rounded=0;whiteSpace=wrap;html=1;rotation=-90;" vertex="1" parent="1">
          <mxGeometry x="219" y="-20" width="6" height="362" as="geometry" />
        </mxCell>
        <mxCell id="bCRU6YlXV68KjKm_1EpI-42" value="" style="rounded=1;whiteSpace=wrap;html=1;" vertex="1" parent="1">
          <mxGeometry x="400" y="150" width="170" height="21" as="geometry" />
        </mxCell>
        <mxCell id="bCRU6YlXV68KjKm_1EpI-41" value="switch boot sequence" style="text;strokeColor=none;align=center;fillColor=none;html=1;verticalAlign=middle;whiteSpace=wrap;rounded=0;" vertex="1" parent="1">
          <mxGeometry x="420" y="147" width="130" height="27" as="geometry" />
        </mxCell>
        <mxCell id="bCRU6YlXV68KjKm_1EpI-43" value="" style="rounded=0;whiteSpace=wrap;html=1;rotation=-90;" vertex="1" parent="1">
          <mxGeometry x="748" y="-21.5" width="6" height="362" as="geometry" />
        </mxCell>
        <mxCell id="bCRU6YlXV68KjKm_1EpI-44" value="" style="rounded=0;whiteSpace=wrap;html=1;fillColor=#dae8fc;strokeColor=#6c8ebf;" vertex="1" parent="1">
          <mxGeometry x="634.5" y="279" width="10" height="41" as="geometry" />
        </mxCell>
        <mxCell id="bCRU6YlXV68KjKm_1EpI-45" value="" style="endArrow=none;dashed=1;html=1;rounded=0;entryX=0.5;entryY=1;entryDx=0;entryDy=0;exitX=0.5;exitY=0;exitDx=0;exitDy=0;" edge="1" parent="1" source="bCRU6YlXV68KjKm_1EpI-44" target="bCRU6YlXV68KjKm_1EpI-26">
          <mxGeometry width="50" height="50" relative="1" as="geometry">
            <mxPoint x="290" y="850" as="sourcePoint" />
            <mxPoint x="290" y="91" as="targetPoint" />
          </mxGeometry>
        </mxCell>
        <mxCell id="bCRU6YlXV68KjKm_1EpI-46" value="" style="edgeStyle=none;orthogonalLoop=1;jettySize=auto;html=1;rounded=0;entryX=0;entryY=0;entryDx=0;entryDy=0;" edge="1" parent="1" target="bCRU6YlXV68KjKm_1EpI-44">
          <mxGeometry width="80" relative="1" as="geometry">
            <mxPoint x="290" y="279" as="sourcePoint" />
            <mxPoint x="500" y="279" as="targetPoint" />
            <Array as="points" />
          </mxGeometry>
        </mxCell>
        <mxCell id="bCRU6YlXV68KjKm_1EpI-47" value="&lt;b&gt;DHCP DISCOVER&lt;/b&gt;&lt;br&gt;with option 61" style="text;strokeColor=none;align=center;fillColor=none;html=1;verticalAlign=middle;whiteSpace=wrap;rounded=0;" vertex="1" parent="1">
          <mxGeometry x="321" y="249" width="111" height="30" as="geometry" />
        </mxCell>
        <mxCell id="bCRU6YlXV68KjKm_1EpI-48" value="" style="edgeStyle=none;orthogonalLoop=1;jettySize=auto;html=1;rounded=0;dashed=1;" edge="1" parent="1">
          <mxGeometry width="80" relative="1" as="geometry">
            <mxPoint x="630" y="321" as="sourcePoint" />
            <mxPoint x="290" y="321" as="targetPoint" />
            <Array as="points" />
          </mxGeometry>
        </mxCell>
        <mxCell id="bCRU6YlXV68KjKm_1EpI-49" value="&lt;b&gt;DHCP OFFER&lt;/b&gt;&lt;br&gt;with option 66 &amp;amp; 67" style="text;strokeColor=none;align=center;fillColor=none;html=1;verticalAlign=middle;whiteSpace=wrap;rounded=0;" vertex="1" parent="1">
          <mxGeometry x="319.5" y="322" width="120.5" height="30" as="geometry" />
        </mxCell>
        <mxCell id="bCRU6YlXV68KjKm_1EpI-51" value="" style="rounded=0;whiteSpace=wrap;html=1;fillColor=#dae8fc;strokeColor=#6c8ebf;" vertex="1" parent="1">
          <mxGeometry x="634.5" y="400" width="10" height="41" as="geometry" />
        </mxCell>
        <mxCell id="bCRU6YlXV68KjKm_1EpI-53" value="" style="endArrow=none;dashed=1;html=1;rounded=0;exitX=0.5;exitY=0;exitDx=0;exitDy=0;" edge="1" parent="1" source="bCRU6YlXV68KjKm_1EpI-51">
          <mxGeometry width="50" height="50" relative="1" as="geometry">
            <mxPoint x="650" y="289" as="sourcePoint" />
            <mxPoint x="640" y="320" as="targetPoint" />
          </mxGeometry>
        </mxCell>
        <mxCell id="bCRU6YlXV68KjKm_1EpI-54" value="" style="edgeStyle=none;orthogonalLoop=1;jettySize=auto;html=1;rounded=0;entryX=0;entryY=0;entryDx=0;entryDy=0;" edge="1" parent="1">
          <mxGeometry width="80" relative="1" as="geometry">
            <mxPoint x="289.5" y="400" as="sourcePoint" />
            <mxPoint x="634.5" y="400" as="targetPoint" />
            <Array as="points" />
          </mxGeometry>
        </mxCell>
        <mxCell id="bCRU6YlXV68KjKm_1EpI-55" value="&lt;b&gt;DHCP REQUEST&lt;/b&gt;" style="text;strokeColor=none;align=center;fillColor=none;html=1;verticalAlign=middle;whiteSpace=wrap;rounded=0;" vertex="1" parent="1">
          <mxGeometry x="321" y="380" width="111" height="20" as="geometry" />
        </mxCell>
        <mxCell id="bCRU6YlXV68KjKm_1EpI-56" value="" style="edgeStyle=none;orthogonalLoop=1;jettySize=auto;html=1;rounded=0;dashed=1;" edge="1" parent="1">
          <mxGeometry width="80" relative="1" as="geometry">
            <mxPoint x="630" y="441" as="sourcePoint" />
            <mxPoint x="290" y="441" as="targetPoint" />
            <Array as="points" />
          </mxGeometry>
        </mxCell>
        <mxCell id="bCRU6YlXV68KjKm_1EpI-57" value="&lt;b&gt;DHCP OFFER&lt;/b&gt;" style="text;strokeColor=none;align=center;fillColor=none;html=1;verticalAlign=middle;whiteSpace=wrap;rounded=0;" vertex="1" parent="1">
          <mxGeometry x="321" y="441" width="111" height="20" as="geometry" />
        </mxCell>
        <mxCell id="bCRU6YlXV68KjKm_1EpI-58" value="" style="rounded=0;whiteSpace=wrap;html=1;fillColor=#dae8fc;strokeColor=#6c8ebf;" vertex="1" parent="1">
          <mxGeometry x="875" y="519" width="10" height="41" as="geometry" />
        </mxCell>
        <mxCell id="bCRU6YlXV68KjKm_1EpI-59" value="" style="endArrow=none;dashed=1;html=1;rounded=0;entryX=0.5;entryY=1;entryDx=0;entryDy=0;exitX=0.5;exitY=0;exitDx=0;exitDy=0;" edge="1" parent="1" source="bCRU6YlXV68KjKm_1EpI-58" target="bCRU6YlXV68KjKm_1EpI-28">
          <mxGeometry width="50" height="50" relative="1" as="geometry">
            <mxPoint x="650" y="289" as="sourcePoint" />
            <mxPoint x="650" y="91" as="targetPoint" />
          </mxGeometry>
        </mxCell>
        <mxCell id="bCRU6YlXV68KjKm_1EpI-60" value="" style="edgeStyle=none;orthogonalLoop=1;jettySize=auto;html=1;rounded=0;entryX=0;entryY=0;entryDx=0;entryDy=0;" edge="1" parent="1">
          <mxGeometry width="80" relative="1" as="geometry">
            <mxPoint x="290" y="520" as="sourcePoint" />
            <mxPoint x="875" y="519" as="targetPoint" />
            <Array as="points" />
          </mxGeometry>
        </mxCell>
        <mxCell id="bCRU6YlXV68KjKm_1EpI-61" value="&lt;b&gt;GO to File server&lt;br&gt;&lt;/b&gt;using option 66" style="text;strokeColor=none;align=center;fillColor=none;html=1;verticalAlign=middle;whiteSpace=wrap;rounded=0;" vertex="1" parent="1">
          <mxGeometry x="321" y="489" width="119" height="30" as="geometry" />
        </mxCell>
        <mxCell id="bCRU6YlXV68KjKm_1EpI-62" value="" style="edgeStyle=none;orthogonalLoop=1;jettySize=auto;html=1;rounded=0;entryX=0;entryY=0;entryDx=0;entryDy=0;" edge="1" parent="1">
          <mxGeometry width="80" relative="1" as="geometry">
            <mxPoint x="290" y="561" as="sourcePoint" />
            <mxPoint x="875" y="560" as="targetPoint" />
            <Array as="points" />
          </mxGeometry>
        </mxCell>
        <mxCell id="bCRU6YlXV68KjKm_1EpI-63" value="&lt;b&gt;Download startup-config file&lt;br&gt;&lt;/b&gt;using option 67" style="text;strokeColor=none;align=center;fillColor=none;html=1;verticalAlign=middle;whiteSpace=wrap;rounded=0;" vertex="1" parent="1">
          <mxGeometry x="321" y="570" width="179" height="30" as="geometry" />
        </mxCell>
      </root>
    </mxGraphModel>
  </diagram>
</mxfile>
